<?xml version="1.0" encoding="utf-8"?>
<!-- Generator: Adobe Illustrator 24.3.0, SVG Export Plug-In . SVG Version: 6.00 Build 0)  -->
<svg version="1.0" id="Layer_1" xmlns="http://www.w3.org/2000/svg" xmlns:xlink="http://www.w3.org/1999/xlink" x="0px" y="0px"
	 viewBox="0 0 248.682 62" style="enable-background:new 0 0 248.682 62;" xml:space="preserve">
<g>
	<path style="fill:#DB0030;" d="M157.49,58.364c-0.121,0.511-0.326,0.987-0.616,1.427c-0.291,0.441-0.651,0.826-1.082,1.157
		c-0.431,0.33-0.927,0.588-1.487,0.774c-0.562,0.185-1.162,0.278-1.803,0.278c-0.861,0-1.633-0.151-2.314-0.451
		c-0.681-0.3-1.259-0.703-1.735-1.209c-0.476-0.505-0.841-1.091-1.097-1.758c-0.255-0.666-0.383-1.37-0.383-2.111
		c0-0.711,0.122-1.397,0.368-2.059c0.245-0.661,0.601-1.247,1.067-1.758c0.466-0.511,1.026-0.919,1.683-1.224
		c0.656-0.305,1.4-0.458,2.231-0.458c0.781,0,1.475,0.108,2.081,0.324s1.124,0.505,1.555,0.871c0.431,0.365,0.774,0.796,1.029,1.292
		c0.255,0.496,0.423,1.029,0.503,1.6h-1.818c-0.06-0.361-0.178-0.696-0.353-1.007c-0.176-0.31-0.396-0.578-0.661-0.804
		c-0.265-0.225-0.576-0.403-0.931-0.533c-0.356-0.13-0.749-0.195-1.18-0.195c-0.601,0-1.139,0.11-1.615,0.33
		c-0.476,0.22-0.874,0.513-1.194,0.879c-0.321,0.366-0.566,0.786-0.736,1.262c-0.171,0.476-0.255,0.969-0.255,1.48
		c0,0.54,0.087,1.051,0.263,1.532c0.175,0.481,0.43,0.904,0.766,1.269c0.335,0.366,0.751,0.654,1.247,0.864
		c0.496,0.211,1.064,0.315,1.705,0.315c0.3,0,0.603-0.052,0.909-0.157c0.305-0.105,0.588-0.25,0.849-0.436
		c0.26-0.185,0.488-0.405,0.684-0.661c0.195-0.255,0.338-0.533,0.428-0.834H157.49z"/>
	<path style="fill:#DB0030;" d="M163.957,62c-0.841,0-1.6-0.153-2.276-0.458c-0.676-0.305-1.247-0.713-1.713-1.224
		c-0.466-0.511-0.824-1.099-1.074-1.765c-0.25-0.666-0.375-1.355-0.375-2.066c0-0.711,0.125-1.4,0.375-2.066
		c0.25-0.666,0.608-1.254,1.074-1.765c0.466-0.511,1.037-0.919,1.713-1.224c0.676-0.305,1.435-0.458,2.276-0.458
		s1.6,0.153,2.276,0.458c0.676,0.305,1.247,0.713,1.713,1.224c0.466,0.511,0.824,1.099,1.074,1.765
		c0.25,0.666,0.375,1.355,0.375,2.066c0,0.711-0.126,1.4-0.375,2.066c-0.25,0.666-0.608,1.254-1.074,1.765
		c-0.466,0.511-1.037,0.919-1.713,1.224C165.557,61.847,164.798,62,163.957,62z M163.957,60.452c0.561,0,1.064-0.11,1.51-0.33
		c0.446-0.22,0.826-0.515,1.142-0.886c0.315-0.37,0.556-0.793,0.721-1.269c0.165-0.476,0.248-0.969,0.248-1.48
		c0-0.511-0.083-1.004-0.248-1.48c-0.166-0.475-0.406-0.899-0.721-1.269c-0.315-0.37-0.696-0.666-1.142-0.886
		c-0.445-0.22-0.949-0.33-1.51-0.33s-1.064,0.11-1.51,0.33c-0.446,0.22-0.826,0.516-1.142,0.886
		c-0.315,0.37-0.556,0.794-0.721,1.269c-0.165,0.476-0.248,0.969-0.248,1.48c0,0.51,0.083,1.004,0.248,1.48
		c0.166,0.476,0.406,0.899,0.721,1.269c0.315,0.371,0.696,0.666,1.142,0.886C162.892,60.342,163.396,60.452,163.957,60.452z"/>
	<path style="fill:#DB0030;" d="M171.036,51.228h3.771c0.561,0,1.069,0.098,1.525,0.293c0.456,0.196,0.846,0.463,1.172,0.804
		c0.325,0.34,0.576,0.734,0.751,1.179c0.175,0.446,0.263,0.914,0.263,1.405c0,0.381-0.05,0.744-0.151,1.089
		c-0.1,0.345-0.247,0.666-0.443,0.961c-0.196,0.295-0.431,0.562-0.706,0.796c-0.275,0.235-0.583,0.424-0.924,0.563l2.088,3.426
		h-1.968l-1.923-3.155h-1.728v3.155h-1.728V51.228z M174.807,57.042c0.3,0,0.573-0.057,0.819-0.173
		c0.245-0.115,0.453-0.27,0.623-0.466c0.17-0.195,0.303-0.42,0.398-0.676c0.096-0.255,0.143-0.528,0.143-0.819
		c0-0.29-0.047-0.563-0.143-0.819c-0.095-0.255-0.228-0.48-0.398-0.676c-0.171-0.196-0.378-0.35-0.623-0.466
		c-0.245-0.115-0.518-0.172-0.819-0.172h-2.043v4.267H174.807z"/>
	<path style="fill:#DB0030;" d="M185.005,62c-0.841,0-1.6-0.153-2.276-0.458c-0.676-0.305-1.247-0.713-1.713-1.224
		s-0.824-1.099-1.074-1.765c-0.25-0.666-0.375-1.355-0.375-2.066c0-0.711,0.125-1.4,0.375-2.066c0.25-0.666,0.608-1.254,1.074-1.765
		c0.466-0.511,1.037-0.919,1.713-1.224c0.676-0.305,1.435-0.458,2.276-0.458s1.6,0.153,2.276,0.458
		c0.676,0.305,1.247,0.713,1.713,1.224c0.466,0.511,0.824,1.099,1.074,1.765c0.25,0.666,0.375,1.355,0.375,2.066
		c0,0.711-0.126,1.4-0.375,2.066c-0.25,0.666-0.608,1.254-1.074,1.765c-0.466,0.511-1.037,0.919-1.713,1.224
		C186.605,61.847,185.846,62,185.005,62z M185.005,60.452c0.561,0,1.064-0.11,1.51-0.33c0.446-0.22,0.826-0.515,1.142-0.886
		c0.315-0.37,0.556-0.793,0.721-1.269c0.165-0.476,0.248-0.969,0.248-1.48c0-0.511-0.083-1.004-0.248-1.48
		c-0.166-0.475-0.406-0.899-0.721-1.269c-0.315-0.37-0.696-0.666-1.142-0.886c-0.445-0.22-0.949-0.33-1.51-0.33
		c-0.561,0-1.064,0.11-1.51,0.33c-0.446,0.22-0.826,0.516-1.142,0.886c-0.315,0.37-0.556,0.794-0.721,1.269
		c-0.165,0.476-0.248,0.969-0.248,1.48c0,0.51,0.083,1.004,0.248,1.48c0.166,0.476,0.406,0.899,0.721,1.269
		c0.315,0.371,0.696,0.666,1.142,0.886C183.941,60.342,184.444,60.452,185.005,60.452z"/>
	<path style="fill:#DB0030;" d="M198.139,58.709v-7.482h1.728v10.517h-1.893l-4.161-7.482v7.482h-1.728V51.228h1.893L198.139,58.709
		z"/>
	<path style="fill:#DB0030;" d="M207.624,61.745l-0.45-1.337h-3.951l-0.45,1.337h-1.818l3.636-10.517h1.217l3.636,10.517H207.624z
		 M205.206,54.097l-1.457,4.763h2.9L205.206,54.097z"/>
	<path style="fill:#DB0030;" d="M213.696,61.745h-1.217l-3.636-10.517h1.818l2.434,7.647l2.419-7.647h1.818L213.696,61.745z"/>
	<path style="fill:#DB0030;" d="M218.419,51.228h1.788v10.517h-1.788V51.228z"/>
	<path style="fill:#DB0030;" d="M222.411,51.228h3.771c0.561,0,1.069,0.098,1.525,0.293c0.456,0.196,0.846,0.463,1.172,0.804
		c0.325,0.34,0.576,0.734,0.751,1.179c0.175,0.446,0.263,0.914,0.263,1.405c0,0.381-0.05,0.744-0.151,1.089
		c-0.1,0.345-0.247,0.666-0.443,0.961c-0.196,0.295-0.431,0.562-0.706,0.796c-0.275,0.235-0.583,0.424-0.924,0.563l2.088,3.426
		h-1.968l-1.923-3.155h-1.728v3.155h-1.728V51.228z M226.182,57.042c0.3,0,0.573-0.057,0.819-0.173
		c0.245-0.115,0.453-0.27,0.623-0.466c0.17-0.195,0.303-0.42,0.398-0.676c0.096-0.255,0.143-0.528,0.143-0.819
		c0-0.29-0.047-0.563-0.143-0.819c-0.095-0.255-0.228-0.48-0.398-0.676c-0.171-0.196-0.378-0.35-0.623-0.466
		c-0.245-0.115-0.518-0.172-0.819-0.172h-2.043v4.267H226.182z"/>
	<path style="fill:#DB0030;" d="M231.44,51.228h1.728v7.002c0,0.3,0.047,0.586,0.142,0.856s0.233,0.506,0.414,0.706
		c0.18,0.201,0.395,0.36,0.646,0.481c0.25,0.12,0.531,0.18,0.841,0.18c0.31,0,0.593-0.06,0.849-0.18
		c0.255-0.121,0.473-0.28,0.653-0.481c0.181-0.2,0.32-0.435,0.42-0.706c0.101-0.27,0.151-0.556,0.151-0.856v-7.002h1.728v7.002
		c0,0.511-0.09,0.994-0.27,1.45c-0.181,0.456-0.435,0.856-0.766,1.202c-0.33,0.345-0.728,0.618-1.194,0.819
		c-0.465,0.2-0.989,0.3-1.57,0.3c-0.571,0-1.087-0.101-1.548-0.3c-0.46-0.201-0.856-0.473-1.187-0.819
		c-0.33-0.345-0.586-0.746-0.766-1.202c-0.181-0.456-0.27-0.939-0.27-1.45V51.228z"/>
	<path style="fill:#DB0030;" d="M242.308,58.304c0,0.691,0.191,1.222,0.571,1.593c0.38,0.37,0.871,0.555,1.472,0.555
		c0.24,0,0.466-0.037,0.676-0.112c0.21-0.075,0.393-0.181,0.548-0.315c0.155-0.135,0.278-0.298,0.368-0.488
		c0.09-0.19,0.135-0.405,0.135-0.646c0-0.27-0.052-0.496-0.157-0.676c-0.106-0.181-0.24-0.333-0.406-0.458
		c-0.165-0.125-0.345-0.23-0.54-0.315c-0.196-0.085-0.384-0.158-0.563-0.218c-0.481-0.17-0.932-0.343-1.352-0.518
		c-0.421-0.175-0.789-0.385-1.104-0.631c-0.315-0.245-0.563-0.543-0.744-0.894c-0.18-0.35-0.27-0.791-0.27-1.322
		c0-0.43,0.088-0.823,0.263-1.179c0.176-0.355,0.411-0.661,0.706-0.916c0.295-0.255,0.641-0.45,1.036-0.586
		c0.396-0.135,0.814-0.203,1.255-0.203c0.47,0,0.911,0.081,1.322,0.24c0.411,0.161,0.766,0.386,1.067,0.676
		c0.3,0.29,0.536,0.636,0.706,1.036c0.17,0.401,0.255,0.846,0.255,1.337h-1.728c0-0.521-0.141-0.941-0.421-1.262
		c-0.28-0.32-0.666-0.48-1.157-0.48c-0.431,0-0.801,0.11-1.112,0.33c-0.31,0.22-0.466,0.556-0.466,1.006
		c0,0.211,0.043,0.399,0.128,0.563c0.085,0.166,0.201,0.309,0.345,0.428c0.145,0.12,0.308,0.225,0.488,0.315
		c0.18,0.09,0.37,0.171,0.571,0.24c0.41,0.15,0.828,0.31,1.254,0.481c0.426,0.17,0.814,0.38,1.164,0.631
		c0.35,0.25,0.636,0.551,0.856,0.901c0.221,0.35,0.33,0.776,0.33,1.277c0,0.541-0.095,1.017-0.285,1.427
		c-0.19,0.411-0.45,0.756-0.781,1.037c-0.33,0.28-0.714,0.491-1.149,0.631c-0.436,0.141-0.899,0.211-1.39,0.211
		c-0.481,0-0.939-0.082-1.375-0.248c-0.435-0.166-0.819-0.405-1.149-0.721c-0.33-0.316-0.596-0.701-0.796-1.157
		c-0.201-0.455-0.3-0.979-0.3-1.57H242.308z"/>
</g>
<g>
	<path style="fill:#223645;" d="M73.847,47.692c-2.844,0-5.38-0.482-7.609-1.446c-2.228-0.964-4.109-2.252-5.642-3.864
		c-1.534-1.611-2.702-3.476-3.508-5.594s-1.209-4.314-1.209-6.59c0-2.275,0.403-4.472,1.209-6.589
		c0.806-2.117,1.974-3.982,3.508-5.594c1.533-1.612,3.413-2.899,5.642-3.864c2.228-0.964,4.765-1.446,7.609-1.446
		s5.388,0.482,7.633,1.446c2.243,0.965,4.132,2.251,5.665,3.864c1.533,1.611,2.703,3.477,3.509,5.594
		c0.805,2.118,1.209,4.314,1.209,6.589c0,2.276-0.404,4.473-1.209,6.59c-0.806,2.118-1.976,3.982-3.509,5.594
		s-3.421,2.9-5.665,3.864C79.236,47.21,76.691,47.692,73.847,47.692z M73.847,38.684c1.264,0,2.394-0.236,3.389-0.711
		c0.996-0.474,1.833-1.098,2.512-1.873c0.68-0.774,1.201-1.675,1.565-2.703c0.363-1.027,0.545-2.093,0.545-3.2
		c0-1.105-0.182-2.173-0.545-3.2c-0.364-1.027-0.885-1.927-1.565-2.702c-0.68-0.774-1.517-1.398-2.512-1.873
		c-0.996-0.474-2.126-0.712-3.389-0.712c-1.265,0-2.394,0.237-3.389,0.712c-0.996,0.474-1.834,1.098-2.513,1.873
		c-0.68,0.774-1.201,1.675-1.564,2.702c-0.364,1.027-0.545,2.095-0.545,3.2c0,1.107,0.181,2.173,0.545,3.2
		c0.363,1.027,0.884,1.928,1.564,2.703c0.68,0.774,1.518,1.398,2.513,1.873C71.453,38.448,72.582,38.684,73.847,38.684z"/>
</g>
<g>
	<path style="fill:#223645;" d="M114.142,46.791h-10.335L91.576,13.607h10.667l6.732,22.708l6.684-22.708h10.998L114.142,46.791z"/>
</g>
<g>
	<path style="fill:#223645;" d="M130.26,13.607h9.956v33.185h-9.956V13.607z"/>
</g>
<g>
	<path style="fill:#223645;" d="M160.742,13.607c2.75,0,5.198,0.458,7.348,1.374c2.15,0.918,3.966,2.142,5.452,3.674
		c1.485,1.534,2.615,3.303,3.389,5.31c0.774,2.007,1.162,4.085,1.162,6.234c0,2.15-0.388,4.227-1.162,6.234
		c-0.774,2.007-1.896,3.777-3.365,5.31c-1.47,1.533-3.28,2.758-5.428,3.673c-2.15,0.918-4.615,1.375-7.396,1.375h-13.558V13.607
		H160.742z M157.044,21.95v16.498h2.987c1.233,0,2.347-0.229,3.342-0.688c0.996-0.458,1.833-1.066,2.512-1.826
		c0.68-0.758,1.201-1.635,1.565-2.631c0.363-0.996,0.545-2.03,0.545-3.105c0-1.073-0.182-2.109-0.545-3.104
		c-0.364-0.996-0.885-1.873-1.565-2.632c-0.68-0.758-1.517-1.366-2.512-1.825c-0.996-0.458-2.11-0.688-3.342-0.688H157.044z"/>
</g>
<g>
	<path style="fill:#223645;" d="M195.018,32.38h-12.942v-7.017h12.942V32.38z"/>
</g>
<g>
	<path style="fill:#223645;" d="M199.142,19.722c1.706,0,3.104-0.134,4.196-0.403c1.09-0.268,1.943-0.656,2.559-1.161
		c0.617-0.505,1.043-1.138,1.281-1.896c0.237-0.758,0.355-1.643,0.355-2.655h8.344v33.185h-9.908V26.216h-6.826V19.722z"/>
</g>
<g>
	<path style="fill:#223645;" d="M234.981,12.895c2.181,0,4.124,0.332,5.831,0.996c1.706,0.664,3.144,1.558,4.314,2.679
		c1.169,1.122,2.054,2.434,2.655,3.934c0.6,1.502,0.901,3.105,0.901,4.812c0,2.623-0.664,4.93-1.991,6.921l-9.672,14.554h-10.95
		l6.257-9.292c-1.739-0.22-3.295-0.688-4.67-1.398c-1.374-0.711-2.536-1.611-3.484-2.703c-0.949-1.09-1.676-2.323-2.181-3.697
		c-0.506-1.375-0.759-2.836-0.759-4.385c0-1.707,0.309-3.311,0.925-4.812c0.616-1.501,1.509-2.812,2.679-3.934
		c1.169-1.121,2.607-2.015,4.314-2.679C230.857,13.227,232.801,12.895,234.981,12.895z M234.981,20.765
		c-1.327,0-2.379,0.435-3.153,1.304c-0.774,0.87-1.161,1.952-1.161,3.248c0,1.296,0.387,2.378,1.161,3.247
		c0.774,0.87,1.826,1.304,3.153,1.304s2.378-0.434,3.152-1.304c0.774-0.869,1.162-1.951,1.162-3.247
		c0-1.296-0.388-2.378-1.162-3.248C237.359,21.2,236.309,20.765,234.981,20.765z"/>
</g>
<g>
	<path style="fill:#DB0030;" d="M54.564,52.819c-0.848-1.468-2.322-2.345-3.886-2.5c-1-0.099-1.92-0.713-2.563-1.461
		c-0.86-1.001-1.227-2.318-1.037-3.621c0.076-0.524,0.234-1.034,0.446-1.519c0.177-0.404,0.36-0.811,0.609-1.177
		c0.25-0.368,0.582-0.681,0.861-1.027c0.602-0.746,1.134-1.55,1.575-2.402c0.884-1.707,1.47-3.509,1.754-5.404h-10.43
		c-0.316,1.391-1.075,2.576-2.275,3.555c-1.202,0.981-2.719,1.47-4.551,1.47c-1.296,0-2.45-0.22-3.461-0.664
		c-1.012-0.442-1.873-1.042-2.584-1.802c-0.711-0.758-1.257-1.659-1.636-2.702c-0.379-1.043-0.569-2.165-0.569-3.366
		c0-1.137,0.173-2.219,0.521-3.247c0.347-1.027,0.854-1.927,1.517-2.703c0.664-0.773,1.5-1.398,2.512-1.873
		c1.011-0.473,2.181-0.711,3.508-0.711c2.054,0,3.666,0.537,4.835,1.612c1.169,1.075,1.896,2.403,2.181,3.982H52.23
		c-0.221-1.991-0.766-3.871-1.635-5.642c-0.545-1.11-1.222-2.122-2.003-3.057c-3.776-4.851-0.156-8.303,2.004-8.484
		c1.568-0.153,3.042-1.03,3.889-2.498c1.395-2.416,0.567-5.506-1.849-6.901c-2.416-1.395-5.506-0.567-6.901,1.849
		c-0.848,1.468-0.87,3.183-0.222,4.615c0.124,0.071,0.187,0.538,0.212,0.668c0.052,0.266,0.072,0.537,0.069,0.808
		c-0.008,0.61-0.142,1.219-0.383,1.778c-0.605,1.405-1.872,2.337-3.349,2.665c-0.593,0.132-1.204,0.174-1.811,0.155
		c-0.356-0.011-0.711-0.043-1.064-0.091c-1.134-0.156-2.269-0.566-3.019-1.486c-0.485-0.596-0.695-1.364-0.556-2.121
		c0.057-0.313,0.17-0.618,0.335-0.891c0.075-0.124,0.351-0.583,0.514-0.583c0.737-0.526,1.222-1.383,1.222-2.357
		c0-1.601-1.298-2.899-2.899-2.899s-2.899,1.298-2.899,2.899c0,0.974,0.485,1.832,1.214,2.357c1.131,0.815,1.126,2.569,0.304,3.585
		c-0.762,0.941-1.922,1.35-3.089,1.503c-6.015,0.788-7.181-4.036-6.261-5.987c0.651-1.434,0.629-3.149-0.219-4.617
		c-1.395-2.416-4.485-3.244-6.901-1.849c-2.416,1.395-3.244,4.485-1.849,6.901c0.848,1.468,2.322,2.345,3.886,2.5
		c2.185,0.18,5.854,3.7,1.891,8.627c-0.458,0.532-0.954,0.877-1.642,1.074c-0.521,0.15-1.077,0.167-1.596,0.002
		c-0.78-0.247-1.492-0.913-1.697-1.72c-0.021-0.081-0.035-0.163-0.043-0.246c-0.087-0.901-0.587-1.75-1.431-2.237
		c-1.386-0.801-3.159-0.325-3.96,1.061c-0.8,1.386-0.325,3.159,1.061,3.96c0.844,0.487,1.829,0.496,2.648,0.128
		c1.289-0.58,2.813,0.333,3.267,1.572c0.221,0.602,0.312,1.301,0.198,1.935c-0.107,0.591-0.43,1.179-0.725,1.696
		c-0.494,0.866-1.15,1.661-1.998,2.199c-1.259,0.799-2.84,0.907-4.209,0.327c-0.61-0.258-1.186-0.649-1.575-1.192
		c-0.916-1.281-2.413-2.119-4.108-2.119C2.262,25.147,0,27.409,0,30.199s2.262,5.052,5.052,5.052c1.695,0,3.192-0.838,4.108-2.115
		c0.736-1.026,2.097-1.548,3.327-1.568c1.884-0.03,3.414,1.164,4.354,2.723c0.669,1.11,1.059,2.264,0.725,3.562
		c-0.195,0.758-0.675,1.411-1.384,1.76c-0.59,0.291-1.361,0.399-1.975,0.119c-0.824-0.376-1.809-0.367-2.652,0.121
		c-1.386,0.801-1.862,2.573-1.061,3.96c0.8,1.386,2.573,1.861,3.96,1.061c0.844-0.487,1.344-1.335,1.435-2.23
		c0.078-0.774,0.671-1.463,1.344-1.81c1.054-0.543,2.368-0.228,3.273,0.477c0.526,0.409,0.932,1.122,1.257,1.693
		c0.309,0.544,0.559,1.124,0.708,1.733c0.234,0.955,0.198,1.966-0.175,2.881c-0.536,1.316-1.845,2.58-3.319,2.703
		c-1.568,0.153-3.042,1.03-3.889,2.498c-1.395,2.416-0.567,5.506,1.849,6.901c2.416,1.395,5.506,0.567,6.901-1.849
		c0.848-1.468,0.87-3.183,0.222-4.615c-0.463-1.024-0.327-2.281,0.116-3.286c0.626-1.423,1.93-2.345,3.434-2.654
		c0.771-0.158,1.559-0.141,2.338-0.066c0.728,0.07,1.404,0.132,2.069,0.452c0.825,0.398,1.589,1.028,1.872,1.928
		c0.284,0.904,0.038,2.139-0.778,2.708c-0.737,0.526-1.222,1.383-1.222,2.357c0,1.601,1.298,2.899,2.899,2.899
		s2.899-1.298,2.899-2.899c0-0.974-0.485-1.832-1.214-2.357c-1.178-0.849-1.113-2.671-0.218-3.684
		c0.858-0.971,2.164-1.3,3.407-1.425c1.028-0.103,2.092-0.058,3.077,0.277c1.411,0.479,2.511,1.576,2.941,3.009
		c0.26,0.867,0.313,1.901-0.081,2.738c-0.651,1.434-0.629,3.149,0.219,4.617c1.395,2.416,4.485,3.244,6.901,1.849
		C55.131,58.325,55.959,55.236,54.564,52.819z"/>
</g>
</svg>
